<?xml version="1.0" encoding="utf-8"?>
<!-- Generator: Adobe Illustrator 15.0.2, SVG Export Plug-In . SVG Version: 6.00 Build 0)  -->
<!DOCTYPE svg PUBLIC "-//W3C//DTD SVG 1.1//EN" "http://www.w3.org/Graphics/SVG/1.1/DTD/svg11.dtd">
<svg version="1.1" id="Layer_1" xmlns="http://www.w3.org/2000/svg" xmlns:xlink="http://www.w3.org/1999/xlink" x="0px" y="0px"
	 width="40px" height="40px" viewBox="0 0 40 40" enable-background="new 0 0 40 40" xml:space="preserve">

<path fill="#333" d="M15.732,5.732l-12.5,12.5c-0.977,0.976-0.977,2.559,0,3.535l12.5,12.5c0.976,0.977,2.559,0.977,3.535,0
	c0.978-0.976,0.977-2.559,0-3.535L11.036,22.5H35c1.381,0,2.5-1.119,2.5-2.5s-1.119-2.5-2.5-2.5H11.036l8.231-8.232
	C19.756,8.779,20,8.141,20,7.5s-0.244-1.279-0.732-1.768C18.292,4.756,16.709,4.756,15.732,5.732z"/>
</svg>
