<?xml version="1.0" encoding="utf-8"?>
<!DOCTYPE svg PUBLIC "-//W3C//DTD SVG 1.1//EN" "http://www.w3.org/Graphics/SVG/1.1/DTD/svg11.dtd">
<svg version="1.1" id="Layer_1" xmlns="http://www.w3.org/2000/svg" xmlns:xlink="http://www.w3.org/1999/xlink" x="0px" y="0px"
	 width="40px" height="40px" viewBox="0 0 40 40" enable-background="new 0 0 40 40" xml:space="preserve">

<path fill="#ffffff" d="M28.751,7.713l-8.752,8.751l-8.75-8.75c-0.977-0.977-2.559-0.977-3.535,0s-0.977,2.559,0,3.536l8.75,8.75
	l-8.75,8.751c-0.977,0.977-0.977,2.56,0,3.536s2.559,0.976,3.535-0.001l8.75-8.751l8.75,8.751c0.977,0.977,2.561,0.978,3.537,0.001
	s0.975-2.56-0.002-3.536L23.534,20l8.752-8.751c0.977-0.976,0.977-2.559,0-3.535C31.31,6.737,29.728,6.737,28.751,7.713z"/>
</svg>
